<svg id="vector" xmlns="http://www.w3.org/2000/svg" width="145" height="160" viewBox="0 0 145 160"><defs><clipPath id="clip_path_0"><path d="M0,0h145v160h-145z"/></clipPath></defs><g id="g_0"><path fill="#ffffff" d="M87.45,64.73H105.4C107.23,64.73 108.98,64 110.27,62.71C111.56,61.41 112.29,59.65 112.29,57.82V41.54C112.29,39.21 113.22,36.98 114.86,35.33C116.51,33.68 118.74,32.76 121.06,32.75H138.11C139.93,32.75 141.68,32.02 142.98,30.73C144.27,29.44 145,27.68 145,25.85V6.9C144.99,5.07 144.27,3.32 142.98,2.02C141.68,0.73 139.93,0 138.11,0H116.69C114.87,0 113.12,0.73 111.83,2.02C110.54,3.32 109.81,5.07 109.81,6.9V23.19C109.8,25.52 108.88,27.76 107.23,29.4C105.59,31.05 103.36,31.98 101.03,31.98H83.98C82.16,31.98 80.41,32.71 79.12,34C77.82,35.3 77.1,37.05 77.1,38.88V55.17C77.09,57.5 76.17,59.73 74.53,61.38C72.88,63.03 70.65,63.95 68.33,63.96H50.37C48.54,63.96 46.79,64.69 45.5,65.99C44.21,67.28 43.48,69.04 43.48,70.87V89.82C43.48,91.65 44.21,93.4 45.5,94.7C46.79,95.99 48.54,96.72 50.37,96.72H68.33C70.66,96.72 72.89,97.65 74.53,99.3C76.18,100.94 77.1,103.18 77.11,105.51V121.8C77.11,123.63 77.83,125.38 79.12,126.68C80.42,127.97 82.17,128.7 83.99,128.7H101.03C103.36,128.7 105.59,129.63 107.23,131.28C108.88,132.92 109.8,135.16 109.81,137.49V153.11C109.81,154.94 110.54,156.69 111.83,157.98C113.12,159.28 114.87,160 116.69,160.01H138.11C139.93,160 141.68,159.28 142.98,157.98C144.27,156.69 144.99,154.94 145,153.11V134.15C145,132.32 144.27,130.56 142.98,129.27C141.68,127.97 139.93,127.25 138.11,127.24H121.06C118.74,127.24 116.51,126.32 114.86,124.67C113.22,123.02 112.29,120.79 112.29,118.46V102.84C112.29,101.01 111.56,99.26 110.27,97.96C108.97,96.67 107.22,95.94 105.4,95.94H87.45C85.12,95.94 82.89,95.01 81.25,93.36C79.6,91.71 78.68,89.48 78.68,87.15V73.52C78.68,71.19 79.6,68.96 81.25,67.31C82.89,65.66 85.12,64.74 87.45,64.73Z" clip-path="url(#clip_path_0)"/><path fill="#ffffff" d="M25.53,0H2.49C1.11,0 0,1.11 0,2.49V157.51C0,158.89 1.11,160 2.49,160H25.53C26.91,160 28.02,158.89 28.02,157.51V2.49C28.02,1.11 26.91,0 25.53,0Z"/></g></svg>